<svg width="136" height="21" viewBox="0 0 136 21" fill="none" xmlns="http://www.w3.org/2000/svg">
<g opacity="0.8">
<path opacity="0.8" d="M9.71561 20.6177C7.8751 20.6177 6.21161 20.191 4.7251 19.3376C3.2562 18.4843 2.0971 17.3061 1.2476 15.8034C0.415901 14.2821 0 12.5846 0 10.7109C0 8.83712 0.415901 7.14883 1.2476 5.64611C2.0971 4.12481 3.2651 2.93749 4.7516 2.08406C6.2382 1.23073 7.9017 0.803955 9.74221 0.803955C11.1225 0.803955 12.3967 1.04516 13.5647 1.52756C14.7327 2.00985 15.7237 2.71487 16.5378 3.64251L15.2902 4.95037C13.839 3.4106 12.0074 2.64066 9.79531 2.64066C8.32641 2.64066 6.9903 2.99312 5.7869 3.69814C4.5835 4.40306 3.6367 5.36786 2.9465 6.59222C2.2741 7.81669 1.9378 9.18958 1.9378 10.7109C1.9378 12.2322 2.2741 13.605 2.9465 14.8294C3.6367 16.0539 4.5835 17.0186 5.7869 17.7236C6.9903 18.4285 8.32641 18.7811 9.79531 18.7811C12.0251 18.7811 13.8567 18.0019 15.2902 16.4435L16.5378 17.7514C15.7237 18.679 14.7239 19.3933 13.5382 19.8942C12.3702 20.3766 11.096 20.6177 9.71561 20.6177Z" fill="#213E26"/>
<path opacity="0.8" d="M25.0042 5.70178C26.827 5.70178 28.2251 6.18418 29.1984 7.14888C30.1717 8.0951 30.6584 9.50503 30.6584 11.3788V20.4509H28.8533V18.1689C28.4286 18.9296 27.8003 19.5232 26.9686 19.9499C26.1545 20.3766 25.1812 20.59 24.0486 20.59C22.4912 20.59 21.2525 20.2004 20.3322 19.4211C19.412 18.642 18.9519 17.6123 18.9519 16.3322C18.9519 15.0893 19.3766 14.0874 20.226 13.3268C21.0932 12.5661 22.4647 12.1858 24.3406 12.1858H28.7737V11.2953C28.7737 10.0338 28.4374 9.07826 27.7649 8.42898C27.0925 7.76111 26.1103 7.42713 24.8184 7.42713C23.9336 7.42713 23.0841 7.58483 22.27 7.90024C21.456 8.19706 20.7569 8.61455 20.1729 9.15258L19.3235 7.67761C20.0314 7.0468 20.8808 6.56451 21.8719 6.23052C22.8629 5.87807 23.907 5.70178 25.0042 5.70178ZM24.3406 19.0316C25.4024 19.0316 26.3138 18.7811 27.0748 18.2802C27.8357 17.7607 28.402 17.0186 28.7737 16.0539V13.6607H24.3937C22.0046 13.6607 20.81 14.5326 20.81 16.2766C20.81 17.13 21.1197 17.8072 21.7391 18.308C22.3585 18.7904 23.2257 19.0316 24.3406 19.0316Z" fill="#213E26"/>
<path opacity="0.8" d="M39.5203 20.59C38.3877 20.59 37.2993 20.423 36.2552 20.089C35.2288 19.7365 34.4236 19.3006 33.8396 18.7811L34.689 17.2227C35.273 17.7051 36.0075 18.104 36.8923 18.4194C37.7772 18.7162 38.6974 18.8646 39.653 18.8646C40.9272 18.8646 41.8651 18.6605 42.4668 18.2524C43.0862 17.8256 43.3959 17.232 43.3959 16.4713C43.3959 15.9334 43.2278 15.5159 42.8916 15.2191C42.5553 14.9037 42.1306 14.6718 41.6174 14.5234C41.1042 14.3564 40.4228 14.1988 39.5734 14.0504C38.4408 13.8277 37.5294 13.605 36.8392 13.3824C36.149 13.1413 35.5562 12.7424 35.0607 12.1858C34.5829 11.6293 34.3439 10.8593 34.3439 9.87607C34.3439 8.6516 34.8306 7.64975 35.8039 6.87063C36.7773 6.0914 38.1311 5.70178 39.8654 5.70178C40.7679 5.70178 41.6705 5.83173 42.573 6.0914C43.4756 6.3326 44.2188 6.65729 44.8028 7.06538L43.9799 8.6516C42.8296 7.81674 41.4581 7.39937 39.8654 7.39937C38.662 7.39937 37.7506 7.62199 37.1312 8.06723C36.5295 8.51247 36.2287 9.09684 36.2287 9.82044C36.2287 10.3769 36.3968 10.8222 36.733 11.1562C37.087 11.4902 37.5205 11.7405 38.0338 11.9075C38.547 12.0559 39.2548 12.2136 40.1574 12.3806C41.2723 12.6033 42.166 12.8259 42.8385 13.0485C43.511 13.2711 44.0861 13.6515 44.5639 14.1895C45.0417 14.7275 45.2807 15.4696 45.2807 16.4157C45.2807 17.6958 44.7674 18.7162 43.741 19.4769C42.7323 20.2189 41.3254 20.59 39.5203 20.59Z" fill="#213E26"/>
<path opacity="0.8" d="M53.6493 5.70178C55.4721 5.70178 56.8701 6.18418 57.8435 7.14888C58.8168 8.0951 59.303 9.50503 59.303 11.3788V20.4509H57.4984V18.1689C57.0737 18.9296 56.4454 19.5232 55.6137 19.9499C54.7996 20.3766 53.8263 20.59 52.6937 20.59C51.1363 20.59 49.8976 20.2004 48.9773 19.4211C48.0571 18.642 47.5969 17.6123 47.5969 16.3322C47.5969 15.0893 48.0217 14.0874 48.8711 13.3268C49.7383 12.5661 51.1098 12.1858 52.9857 12.1858H57.4187V11.2953C57.4187 10.0338 57.0825 9.07826 56.41 8.42898C55.7375 7.76111 54.7554 7.42713 53.4635 7.42713C52.5786 7.42713 51.7292 7.58483 50.9151 7.90024C50.1011 8.19706 49.402 8.61455 48.818 9.15258L47.9686 7.67761C48.6765 7.0468 49.5259 6.56451 50.5169 6.23052C51.508 5.87807 52.5521 5.70178 53.6493 5.70178ZM52.9857 19.0316C54.0475 19.0316 54.9589 18.7811 55.7198 18.2802C56.4808 17.7607 57.0471 17.0186 57.4187 16.0539V13.6607H53.0388C50.6497 13.6607 49.4551 14.5326 49.4551 16.2766C49.4551 17.13 49.7648 17.8072 50.3842 18.308C51.0036 18.7904 51.8708 19.0316 52.9857 19.0316Z" fill="#213E26"/>
<path opacity="0.8" d="M72.652 20.4509L78.226 6.09147C78.571 5.20099 78.81 4.42176 78.81 3.78176C78.81 2.44592 77.987 0.720581 75.784 0.720581C74.191 0.720581 72.837 1.69456 72.837 3.44778C72.837 4.9505 74.005 6.17497 75.492 6.17497C77.058 6.17497 77.775 5.03399 77.775 3.83739C77.775 2.72428 77.191 2.13981 76.421 1.86156C76.262 1.80593 76.209 1.72243 76.209 1.58331C76.209 1.44418 76.315 1.33282 76.448 1.33282C76.527 1.33282 76.633 1.36069 76.74 1.38845C77.509 1.61107 78.306 2.44593 78.306 3.80952C78.306 4.70011 77.775 5.95235 77.324 7.06545L74.085 15.1913H73.687L68.856 1.41632H71.006V0.97107H61.582V1.41632H63.122L69.148 18.4195C69.599 19.6996 70.263 20.4509 71.563 20.4509H72.652Z" fill="#213E26"/>
<path opacity="0.8" d="M87.7989 20.0611C85.5159 20.0611 84.9849 18.0018 84.9849 14.9128H86.7369C89.8169 14.9128 92.5769 14.0223 92.5769 11.1004C92.5769 7.92796 89.5509 6.87048 86.4979 6.87048C82.2779 6.87048 79.5969 9.45845 79.5969 13.7997C79.5969 18.3914 82.3569 20.729 87.0029 20.729C90.1619 20.729 92.1259 18.8645 92.6299 15.8868L92.1529 15.8033L92.0999 16.0538C91.6219 18.5028 89.8959 20.0611 87.7989 20.0611ZM84.9589 12.4083C84.9589 8.09496 85.5159 7.37136 86.4979 7.37136C87.2149 7.37136 87.7459 8.12272 87.7459 11.0725C87.7459 13.104 87.2949 14.412 85.6219 14.412H84.9589V12.4083Z" fill="#213E26"/>
<path opacity="0.8" d="M100.199 9.12457V6.87048C98.4211 7.2601 96.7221 7.39922 94.8901 7.39922H93.2981V7.84447H95.1821V19.755H93.5361V20.2002H102.084V19.755H100.093V14.2171C100.093 9.8203 101.128 7.37136 103.358 7.37136C104.34 7.37136 104.924 7.92796 105.163 8.26184C105.27 8.42883 105.323 8.5402 105.323 8.67932C105.323 8.84632 105.216 8.92971 105.084 8.92971C104.898 8.92971 104.818 8.70708 104.659 8.51233C104.5 8.31758 104.102 7.95572 103.491 7.95572C102.456 7.95572 101.739 8.81845 101.739 9.93156C101.739 11.1839 102.668 12.0186 103.81 12.0186C105.243 12.0186 106.066 10.8499 106.066 9.51418C106.066 8.06709 104.924 6.87048 103.332 6.87048C101.898 6.87048 100.863 7.84447 100.332 9.12457H100.199Z" fill="#213E26"/>
<path opacity="0.8" d="M120.415 0.442139C118.637 0.831753 116.938 0.970877 115.106 0.970877H113.514V1.41612H115.398V8.84634H115.266C114.655 7.53837 113.567 6.87051 111.921 6.87051C108.098 6.87051 106.744 9.79245 106.744 13.7997C106.744 17.5287 108.258 20.729 111.549 20.729C113.407 20.729 114.575 20.0889 115.266 18.28H115.398V20.2002H122.061V19.755H120.415V0.442139ZM115.504 13.7997C115.504 16.3321 114.867 19.4768 113.487 19.4768C112.292 19.4768 112.107 16.9443 112.107 13.7997C112.107 9.84808 112.452 7.90012 113.487 7.90012C114.469 7.90012 115.504 9.56983 115.504 13.0484V13.7997Z" fill="#213E26"/>
<path opacity="0.8" d="M131.169 20.0611C128.886 20.0611 128.355 18.0018 128.355 14.9128H130.107C133.186 14.9128 135.947 14.0223 135.947 11.1004C135.947 7.92796 132.921 6.87048 129.868 6.87048C125.647 6.87048 122.966 9.45845 122.966 13.7997C122.966 18.3914 125.727 20.729 130.372 20.729C133.531 20.729 135.496 18.8645 136 15.8868L135.522 15.8033L135.469 16.0538C134.991 18.5028 133.266 20.0611 131.169 20.0611ZM128.328 12.4083C128.328 8.09496 128.886 7.37136 129.868 7.37136C130.585 7.37136 131.116 8.12272 131.116 11.0725C131.116 13.104 130.664 14.412 128.992 14.412H128.328V12.4083Z" fill="#213E26"/>
</g>
</svg>
